HIERARCHY
ROOT Hips
{
	OFFSET 0.000000 0.000000 0.000000
	CHANNELS 6 Xposition Yposition Zposition Xrotation Yrotation Zrotation
	JOINT LeftUpLeg_virtual
	{
		OFFSET 0.000000 0.000000 0.000000
		CHANNELS 3 Xrotation Yrotation Zrotation
		JOINT LeftUpLeg
		{
			OFFSET 11.394100 -6.187798 -0.413800
			CHANNELS 3 Xrotation Yrotation Zrotation
			JOINT LeftLeg
			{
				OFFSET 0.430247 -32.302673 3.732800
				CHANNELS 3 Xrotation Yrotation Zrotation
				JOINT LeftFoot
				{
					OFFSET -0.430247 -48.264931 -6.423300
					CHANNELS 3 Xrotation Yrotation Zrotation
					JOINT LeftToeBase
					{
						OFFSET 4.230900 -16.068199 23.438400
						CHANNELS 3 Xrotation Yrotation Zrotation
						JOINT LeftToe_End
						{
							OFFSET 4.510700 0.695400 19.974600
							CHANNELS 3 Xrotation Yrotation Zrotation
							End Site
							{
								OFFSET 0 0 0
							}
						}
					}
				}
			}
		}
	}
	JOINT RightUpLeg_virtual
	{
		OFFSET 0.000000 0.000000 0.000000
		CHANNELS 3 Xrotation Yrotation Zrotation
		JOINT RightUpLeg
		{
			OFFSET -11.333700 -6.187798 -0.413800
			CHANNELS 3 Xrotation Yrotation Zrotation
			JOINT RightLeg
			{
				OFFSET -0.430392 -32.302628 3.733000
				CHANNELS 3 Xrotation Yrotation Zrotation
				JOINT RightFoot
				{
					OFFSET 0.430392 -48.264973 -6.423500
					CHANNELS 3 Xrotation Yrotation Zrotation
					JOINT RightToeBase
					{
						OFFSET -4.230900 -16.068199 23.438400
						CHANNELS 3 Xrotation Yrotation Zrotation
						JOINT RightToe_End
						{
							OFFSET -4.510700 0.695400 19.974600
							CHANNELS 3 Xrotation Yrotation Zrotation
							End Site
							{
								OFFSET 0 0 0
							}
						}
					}
				}
			}
		}
	}
	JOINT Spine_virtual
	{
		OFFSET 0.000000 0.000000 0.000000
		CHANNELS 3 Xrotation Yrotation Zrotation
		JOINT Spine
		{
			OFFSET -0.002400 12.777504 0.315300
			CHANNELS 3 Xrotation Yrotation Zrotation
			JOINT Spine1
			{
				OFFSET -0.002067 5.816869 0.032633
				CHANNELS 3 Xrotation Yrotation Zrotation
				JOINT Spine1_split
				{
					OFFSET -0.002067 5.816869 0.032633
					CHANNELS 3 Xrotation Yrotation Zrotation
					JOINT Spine2
					{
						OFFSET -0.002067 5.816869 0.032633
						CHANNELS 3 Xrotation Yrotation Zrotation
						JOINT Neck_virtual
						{
							OFFSET 0.000000 0.000000 0.000000
							CHANNELS 3 Xrotation Yrotation Zrotation
							JOINT Neck
							{
								OFFSET -0.003700 21.199493 -0.826900
								CHANNELS 3 Xrotation Yrotation Zrotation
								JOINT Head
								{
									OFFSET 0.000000 20.442200 4.834800
									CHANNELS 3 Xrotation Yrotation Zrotation
									JOINT HeadTop_End
									{
										OFFSET 0.000000 34.668396 4.968400
										CHANNELS 3 Xrotation Yrotation Zrotation
										End Site
										{
											OFFSET 0 0 0
										}
									}
								}
							}
						}
						JOINT LeftShoulder_virtual
						{
							OFFSET 0.000000 0.000000 0.000000
							CHANNELS 3 Xrotation Yrotation Zrotation
							JOINT LeftShoulder
							{
								OFFSET 3.288150 8.794197 -1.372250
								CHANNELS 3 Xrotation Yrotation Zrotation
								JOINT LeftShoulder_split
								{
									OFFSET 3.288150 8.794197 -1.372250
									CHANNELS 3 Xrotation Yrotation Zrotation
									JOINT LeftArm
									{
										OFFSET 11.953299 -2.279007 -0.146200
										CHANNELS 3 Xrotation Yrotation Zrotation
										JOINT LeftForeArm
										{
											OFFSET 18.448900 0.000000 0.000000
											CHANNELS 3 Xrotation Yrotation Zrotation
											JOINT LeftHand
											{
												OFFSET 29.527798 0.000000 0.000000
												CHANNELS 3 Xrotation Yrotation Zrotation
												End Site
												{
													OFFSET 0 0 0
												}
											}
										}
									}
								}
							}
						}
						JOINT RightShoulder_virtual
						{
							OFFSET 0.000000 0.000000 0.000000
							CHANNELS 3 Xrotation Yrotation Zrotation
							JOINT RightShoulder
							{
								OFFSET -3.249400 8.794197 -1.372250
								CHANNELS 3 Xrotation Yrotation Zrotation
								JOINT RightShoulder_split
								{
									OFFSET -3.249400 8.794197 -1.372250
									CHANNELS 3 Xrotation Yrotation Zrotation
									JOINT RightArm
									{
										OFFSET -11.953299 -2.279007 -0.146200
										CHANNELS 3 Xrotation Yrotation Zrotation
										JOINT RightForeArm
										{
											OFFSET -18.448900 0.000000 0.000000
											CHANNELS 3 Xrotation Yrotation Zrotation
											JOINT RightHand
											{
												OFFSET -29.527802 0.000000 0.000000
												CHANNELS 3 Xrotation Yrotation Zrotation
												End Site
												{
													OFFSET 0 0 0
												}
											}
										}
									}
								}
							}
						}
					}
				}
			}
		}
	}
}
MOTION
Frames: 7
Frame Time: 0.03333333
2.469105 81.038368 1.919258 0.000000 0.000000 0.000000 -3.160140 -38.241983 1.051949 -41.196696 5.010245 16.230353 54.896262 -1.561340 4.297242 -14.283227 -6.906085 -13.048568 -0.972582 1.099161 0.246510 0.000000 0.000000 0.000000 -4.535686 -38.774994 1.529911 -24.450153 -11.759574 -29.288015 49.201223 -0.085016 -6.575587 -14.293141 -6.629864 32.757536 0.088800 0.182835 -3.083604 0.000000 0.000000 0.000000 -1.102473 -41.342155 1.503255 11.308858 7.652583 -2.701220 1.032532 1.855420 -1.578246 2.153392 -3.950167 -0.739785 0.000000 0.000000 0.000000 1.047629 1.794127 -0.625319 -0.817672 8.296386 4.806361 10.222157 7.193580 -4.598085 0.000000 0.000000 0.000000 1.479418 1.326543 -1.955028 1.471640 0.078818 -1.741597 -7.192587 2.102070 -5.912549 -45.826263 -5.996923 -48.312544 -167.623320 -77.197271 -165.404820 0.000000 0.000000 0.000000 2.146238 2.685471 0.312321 6.877697 11.290072 -11.026120 5.005237 13.261301 2.066017 -48.437820 33.037113 85.455611 177.350137 67.823451 -179.836723 0.000000 0.000000 0.000000 
2.589344 81.165222 1.131268 0.000000 0.000000 0.000000 -4.179739 -38.543181 1.478250 -39.963109 5.649742 15.436748 54.986035 -1.569344 4.046512 -13.914359 -6.247476 -12.281344 -1.356528 1.018889 0.278662 0.000000 0.000000 0.000000 -5.751168 -39.597626 1.648270 -25.113002 -11.923436 -29.902715 51.582009 -0.741453 -6.283781 -14.936989 -7.480721 30.993138 2.689420 0.083315 -3.125804 0.000000 0.000000 0.000000 -3.267992 -42.882762 1.441420 10.116627 7.967814 -2.231421 0.967007 2.354618 -1.698712 0.412747 -2.689906 -0.584866 0.000000 0.000000 0.000000 1.512427 2.286212 -0.970179 0.633037 7.796756 5.128023 8.751486 8.595071 -5.545763 0.000000 0.000000 0.000000 2.153411 1.886519 -1.851703 1.388895 0.302901 -1.872634 -5.078079 1.445586 -7.614971 -44.402906 -6.691018 -52.081429 -167.820630 -79.811437 -165.841938 0.000000 0.000000 0.000000 2.696188 2.924605 -0.243861 6.731258 11.813490 -8.259908 2.832167 11.128390 1.818019 -46.737451 30.448334 80.534228 179.551644 68.195833 178.865251 0.000000 0.000000 0.000000 
2.788501 81.490982 0.433937 0.000000 0.000000 0.000000 -5.718274 -39.529293 2.451227 -37.011067 6.946583 13.931765 53.674700 -1.918096 3.650184 -13.913585 -5.956347 -12.468340 -1.583447 0.835759 0.493593 0.000000 0.000000 0.000000 -7.209610 -40.702105 2.411023 -25.321946 -10.163259 -30.549326 54.435194 -1.757562 -6.157463 -15.150784 -8.695336 29.601883 1.992052 0.002731 -2.818146 0.000000 0.000000 0.000000 -6.024168 -44.104198 1.617997 8.602109 8.798671 -1.237091 1.223032 3.609742 -1.844271 -0.031747 -0.691279 0.081806 0.000000 0.000000 0.000000 2.165934 3.434995 -1.369261 2.125278 6.762938 4.560376 6.143365 10.070746 -8.097821 0.000000 0.000000 0.000000 2.844193 3.219749 -1.766693 1.086517 0.020833 -2.553421 -3.906288 -0.675839 -7.844764 -40.234575 -9.155622 -58.327903 -167.090237 -83.937028 -165.499377 0.000000 0.000000 0.000000 3.645747 3.908800 -1.012021 6.525057 12.756174 -4.259902 1.877814 9.069132 1.647917 -45.527015 26.529295 72.540536 -178.588260 68.212314 177.874969 0.000000 0.000000 0.000000 
3.017566 82.018257 0.116051 0.000000 0.000000 0.000000 -7.201782 -41.858661 3.741019 -32.866256 8.571778 12.083072 51.175804 -2.268692 3.024204 -14.270662 -5.597459 -13.548801 -1.897423 0.586177 0.890559 0.000000 0.000000 0.000000 -8.402494 -42.631039 3.730782 -25.430362 -6.754696 -31.057212 56.529337 -2.897925 -6.197434 -15.169768 -9.867570 28.127530 -0.464559 -0.145693 -2.059608 0.000000 0.000000 0.000000 -8.702783 -45.761407 2.013746 7.343387 9.626807 0.304397 1.965494 5.139934 -1.844388 1.030568 0.726041 0.867177 0.000000 0.000000 0.000000 3.134827 4.812265 -1.513887 3.206378 5.569619 3.545762 2.499459 11.600089 -11.452559 0.000000 0.000000 0.000000 3.659348 4.806621 -1.528217 0.543999 -0.624732 -3.193451 -3.175588 -1.573730 -7.228041 -34.374214 -12.495544 -64.756525 -142.129256 -88.840899 -140.858363 0.000000 0.000000 0.000000 4.967937 5.150454 -1.695427 6.248697 14.142063 0.077165 1.474878 7.532672 1.865788 -46.192610 24.804397 64.449323 -178.218979 69.031656 178.197559 0.000000 0.000000 0.000000 
3.312540 82.701035 -0.247887 0.000000 0.000000 0.000000 -8.230467 -46.253136 5.033611 -28.133030 10.164242 10.305708 47.945022 -1.931611 2.113638 -15.159991 -4.482917 -14.796831 -2.088313 0.304501 1.222145 0.000000 0.000000 0.000000 -8.801221 -46.304014 5.326403 -26.228526 -2.112202 -31.189400 56.846910 -3.987330 -6.236757 -15.030974 -10.180684 26.060553 -1.143030 -0.335966 -0.962507 0.000000 0.000000 0.000000 -10.583458 -48.736245 2.619022 6.724590 9.914738 2.302474 3.254771 6.286922 -1.549151 1.807951 1.040286 1.298254 0.000000 0.000000 0.000000 4.570367 5.857917 -1.217107 3.417915 4.279263 2.605293 -2.333632 12.945558 -14.516537 0.000000 0.000000 0.000000 4.801135 6.044249 -0.976848 -0.176519 -1.659085 -2.886733 -2.124443 -0.471936 -6.243128 -27.683260 -15.262044 -69.739045 -6.640005 -85.468315 -5.423444 0.000000 0.000000 0.000000 6.432249 6.091553 -1.915623 5.867896 15.740174 3.831991 1.538484 6.376380 2.527847 -49.311353 28.365219 58.577485 -179.738149 71.313466 -179.907634 0.000000 0.000000 0.000000 
3.659225 83.500488 -0.439915 0.000000 0.000000 0.000000 -8.544751 -53.235519 6.116082 -23.339381 11.384454 9.043535 44.516847 -0.678766 1.072218 -16.334240 -2.178824 -15.999809 -1.826532 0.056629 1.246102 0.000000 0.000000 0.000000 -8.293830 -52.402830 6.943586 -28.604229 2.931187 -30.647339 55.375028 -4.915891 -6.055798 -14.022908 -8.899520 23.646240 0.983313 -0.411190 0.260113 0.000000 0.000000 0.000000 -11.243080 -53.645259 3.364707 7.163829 9.201649 4.487459 5.070372 6.596814 -0.952914 2.057476 0.224759 1.373178 0.000000 0.000000 0.000000 6.653236 6.148321 -0.478619 2.913022 2.734223 2.120149 -8.316362 13.896243 -16.523534 0.000000 0.000000 0.000000 6.520884 6.547067 -0.098443 -0.915693 -2.990198 -1.056145 -0.536542 2.174843 -5.188872 -20.984390 -16.634120 -72.909606 -4.949304 -80.221391 -3.420374 0.000000 0.000000 0.000000 8.056037 6.318438 -1.475541 5.457369 17.200356 6.409366 2.264717 5.767915 2.910030 -55.440529 38.156090 57.758183 176.701720 74.944032 -176.210930 0.000000 0.000000 0.000000 
4.043881 84.456001 -0.757694 0.000000 0.000000 0.000000 -7.548888 -62.280213 7.325388 -18.911349 12.300499 8.415686 41.268946 1.454400 -0.028700 -17.380881 1.229406 -17.003527 -1.449103 -0.160240 1.036486 0.000000 0.000000 0.000000 -6.533060 -60.711373 8.723117 -32.599240 7.513398 -29.108005 52.491711 -5.318022 -5.731210 -11.445865 -5.630538 21.747570 3.317323 -0.221419 0.917678 0.000000 0.000000 0.000000 -10.203374 -60.554347 4.542854 8.699967 7.577770 6.798005 7.421159 5.990164 -0.062817 1.516153 -0.112853 1.363888 0.000000 0.000000 0.000000 9.249300 5.636225 0.544747 2.188279 1.103720 2.239165 -15.197333 14.370913 -17.010272 0.000000 0.000000 0.000000 8.996867 6.182646 1.051747 -1.431012 -4.536814 2.157388 0.904448 5.079304 -4.581305 -13.872472 -17.234137 -74.964639 -5.385900 -76.183793 -3.456154 0.000000 0.000000 0.000000 9.899907 5.669456 -0.542175 5.138508 18.264737 8.059550 2.719670 5.584126 2.675995 -66.724473 51.749290 64.979913 171.186670 79.061106 -170.640884 0.000000 0.000000 0.000000 
